<svg xmlns="http://www.w3.org/2000/svg" width="57" height="57" viewBox="0 0 57 57"><defs><clipPath id="a"><path fill="#fff" d="M613.5 879a28.5 28.5 0 1 1 0 57 28.5 28.5 0 0 1 0-57z"/></clipPath></defs><path fill="none" stroke="#000" stroke-miterlimit="50" stroke-width="2" d="M613.5 879a28.5 28.5 0 1 1 0 57 28.5 28.5 0 0 1 0-57z" clip-path="url(&quot;#a&quot;)" transform="translate(-585 -879)"/><path d="M42.13 26.5h-.71v-4.77c0-1.11-.88-2-1.94-2h-.53v-3.17c0-1.12-.83-2-1.83-2h-.11l-20.13 5.17h-.02c-1 .09-1.8.94-1.8 2v18.48c0 1.11.88 2 1.94 2h22.48c1.11 0 2-.89 2-2v-4.9h.64c.36 0 .6-.23.6-.58V27.1a.6.6 0 0 0-.6-.6zm-4.9-10.83c.3.06.6.42.6.88v3.18H21.58zm3.07 24.54c0 .46-.35.88-.82.88H17c-.47 0-.82-.42-.82-.88V21.73c0-.46.35-.88.82-.88h22.42c.46 0 .82.42.82.88v4.77h-5.82A4.37 4.37 0 0 0 30 30.9c0 2.48 2 4.42 4.42 4.42h5.88zm1.23-6h-7.11a3.26 3.26 0 0 1-3.24-3.24 3.27 3.27 0 0 1 3.24-3.23h7.11zm-7.76-3.18c0 .35.29.58.58.58h.53c.3 0 .6-.23.6-.58 0-.36-.3-.6-.6-.6h-.52c-.36 0-.6.25-.6.6z"/></svg>