<svg xmlns="http://www.w3.org/2000/svg" width="57" height="57" viewBox="0 0 57 57"><defs><clipPath id="a"><path fill="#fff" d="M343.5 980a28.5 28.5 0 1 1 0 57 28.5 28.5 0 0 1 0-57z"/></clipPath></defs><path fill="none" stroke="#000" stroke-miterlimit="50" stroke-width="2" d="M343.5 980a28.5 28.5 0 1 1 0 57 28.5 28.5 0 0 1 0-57z" clip-path="url(&quot;#a&quot;)" transform="translate(-315 -980)"/><path d="M40.3 33.8c-.56 0-1.1.17-1.53.46l-4.48-3.8c.25-.39.4-.86.4-1.35 0-1.44-1.22-2.6-2.7-2.6a2.65 2.65 0 0 0-2.7 2.6c0 .39.1.77.26 1.11l-2.52 2.49a2.76 2.76 0 0 0-2.79.25l-5.74-6.44c.54-.47.88-1.16.88-1.92 0-1.43-1.2-2.6-2.69-2.6A2.65 2.65 0 0 0 14 24.6c0 1.44 1.2 2.6 2.7 2.6.36 0 .71-.07 1.03-.2l5.88 6.59c-.29.42-.46.92-.46 1.46 0 1.43 1.2 2.6 2.7 2.6 1.48 0 2.68-1.17 2.68-2.6 0-.71-.29-1.35-.76-1.82l2.31-2.29a2.73 2.73 0 0 0 3.62.18l4.43 3.75c-.33.43-.52.96-.52 1.53 0 1.43 1.21 2.6 2.7 2.6 1.48 0 2.69-1.17 2.69-2.6 0-1.44-1.2-2.6-2.7-2.6zm-25.4-9.2c0-.95.8-1.73 1.8-1.73.98 0 1.78.78 1.78 1.73 0 .96-.8 1.73-1.79 1.73-.98 0-1.78-.77-1.78-1.73zm10.94 12.18c-.98 0-1.78-.78-1.78-1.73 0-.96.8-1.74 1.78-1.74.99 0 1.79.78 1.79 1.74 0 .95-.8 1.73-1.79 1.73zM32 30.84c-.99 0-1.79-.78-1.79-1.73 0-.96.8-1.74 1.79-1.74s1.79.78 1.79 1.74c0 .95-.8 1.73-1.79 1.73zm8.32 7.29c-.99 0-1.79-.78-1.79-1.73 0-.96.8-1.73 1.79-1.73.98 0 1.78.77 1.78 1.73 0 .95-.8 1.73-1.78 1.73z"/></svg>