<svg xmlns="http://www.w3.org/2000/svg" width="57" height="57" viewBox="0 0 57 57"><defs><clipPath id="a"><path fill="#fff" d="M613.5 980a28.5 28.5 0 1 1 0 57 28.5 28.5 0 0 1 0-57z"/></clipPath></defs><path fill="none" stroke="#000" stroke-miterlimit="50" stroke-width="2" d="M613.5 980a28.5 28.5 0 1 1 0 57 28.5 28.5 0 0 1 0-57z" clip-path="url(&quot;#a&quot;)" transform="translate(-585 -980)"/><path fill="#0d2843" d="M8.35 48.35l-.7-.7 40-40 .7.7z"/><path d="M36.7 17H17.01v24.01H41v-19.8zm-2.2.99v6.85h-12v-6.85zm-13 22.04v-9.31H36v9.31zm18.5 0h-3V29.74H20.5v10.29h-2.5V17.99h3.5v7.83H35.5v-7.83h.79l3.7 3.63zm-16.5-6.86H27a.5.5 0 0 0 .5-.49.5.5 0 0 0-.5-.49h-3.5a.5.5 0 0 0-.5.49c0 .27.23.49.5.49zm5 .98h-5a.5.5 0 0 0-.5.49c0 .27.23.49.5.49h5a.5.5 0 0 0 .5-.49.5.5 0 0 0-.5-.49zm1.15.14c-.1.1-.15.22-.15.35 0 .13.06.25.15.35.1.09.22.14.35.14.13 0 .26-.05.36-.14.09-.1.14-.22.14-.35a.52.52 0 0 0-.14-.35.53.53 0 0 0-.71 0zm3.85-15.32h-3v4.89h3zm-1 3.91h-1v-2.93h1z"/></svg>