<svg xmlns="http://www.w3.org/2000/svg" width="57" height="57" viewBox="0 0 57 57"><defs><clipPath id="a"><path fill="#fff" d="M1013.5 1079a28.5 28.5 0 1 1 0 57 28.5 28.5 0 0 1 0-57z"/></clipPath></defs><path fill="none" stroke="#000" stroke-miterlimit="50" stroke-width="2" d="M1013.5 1079a28.5 28.5 0 1 1 0 57 28.5 28.5 0 0 1 0-57z" clip-path="url(&quot;#a&quot;)" transform="translate(-985 -1079)"/><path d="M38.67 29.67h-5.76l-1.8 1.77h4.82l-3.86 3.86 1.08 1.08 3.74-3.74v4.58l1.78-1.79zm-16.89 4.89h4.44v-4.45h4.45v-4.89h4.89v-4.44H40V19h-6.22v4.44h-4.89v4.89h-4.45v4.45H20v4.44h-4V39h5.78z"/></svg>