<svg xmlns="http://www.w3.org/2000/svg" width="57" height="57" viewBox="0 0 57 57"><defs><clipPath id="a"><path fill="#fff" d="M343.5 879a28.5 28.5 0 1 1 0 57 28.5 28.5 0 0 1 0-57z"/></clipPath></defs><path fill="none" stroke="#000" stroke-miterlimit="50" stroke-width="2" d="M343.5 879a28.5 28.5 0 1 1 0 57 28.5 28.5 0 0 1 0-57z" clip-path="url(&quot;#a&quot;)" transform="translate(-315 -879)"/><path d="M35.51 17.86a.89.89 0 0 0-1.24.2l-14.2 19.53a.89.89 0 1 0 1.43 1.04L35.7 19.1c.3-.4.21-.96-.19-1.24zm-12.07 7.82a4.44 4.44 0 1 0 0-8.88 4.44 4.44 0 0 0 0 8.88zm0-7.1a2.67 2.67 0 1 1 0 5.33 2.67 2.67 0 0 1 0-5.34zM33.21 31a4.44 4.44 0 1 0 0 8.88 4.44 4.44 0 0 0 0-8.88zm0 7.1a2.67 2.67 0 1 1 0-5.33 2.67 2.67 0 0 1 0 5.34z"/></svg>