<svg xmlns="http://www.w3.org/2000/svg" width="57" height="57" viewBox="0 0 57 57"><defs><clipPath id="a"><path fill="#fff" d="M343.5 1079a28.5 28.5 0 1 1 0 57 28.5 28.5 0 0 1 0-57z"/></clipPath></defs><path fill="none" stroke="#000" stroke-miterlimit="50" stroke-width="2" d="M343.5 1079a28.5 28.5 0 1 1 0 57 28.5 28.5 0 0 1 0-57z" clip-path="url(&quot;#a&quot;)" transform="translate(-315 -1079)"/><path d="M25.01 36.11v1.88H18.9L17 36.11h5.11L18 32.03l1.15-1.14 3.97 3.96V30l1.9 1.9zM34.22 34.56h-4.44v-4.45h-4.45v-4.89h-4.89v-4.44H16V19h6.22v4.44h4.9v4.89h4.44v4.45H36v4.44h4V39h-5.78z"/></svg>